<svg xmlns="http://www.w3.org/2000/svg" viewBox="0 0 320 180" role="img" aria-label="GPIO Input top view" data-realistic="top-view">
<metadata>2D top-view, real-part-inspired educational illustration. Pin order matches the ZEBJUS wiring model.</metadata>
<defs>
 <linearGradient id="metal" x1="0" y1="0" x2="1" y2="1"><stop stop-color="#f4f7f8"/><stop offset=".42" stop-color="#aeb8bf"/><stop offset=".72" stop-color="#e4eaed"/><stop offset="1" stop-color="#7d8991"/></linearGradient>
 <linearGradient id="chip" x1="0" y1="0" x2="0" y2="1"><stop stop-color="#39434a"/><stop offset="1" stop-color="#14191d"/></linearGradient>
 <radialGradient id="led" cx="35%" cy="28%"><stop stop-color="#fff"/><stop offset=".18" stop-color="#ffef8a"/><stop offset=".55" stop-color="#ffd234"/><stop offset="1" stop-color="#cc7b00"/></radialGradient>
 <radialGradient id="rgb" cx="35%" cy="28%"><stop stop-color="#fff"/><stop offset=".22" stop-color="#ff6580"/><stop offset=".52" stop-color="#6f82ff"/><stop offset=".8" stop-color="#40dca0"/><stop offset="1" stop-color="#2853a3"/></radialGradient>
 <filter id="shadow" x="-30%" y="-30%" width="160%" height="170%"><feDropShadow dx="0" dy="4" stdDeviation="4" flood-color="#334a5a" flood-opacity=".28"/></filter>
 <filter id="glow" x="-50%" y="-50%" width="200%" height="200%"><feGaussianBlur stdDeviation=".35"/></filter>
</defs>
<rect width="320" height="180" rx="14" fill="#f6f8fa"/>
<rect x="8" y="5" width="304" height="21" rx="7" fill="#e8eef3" stroke="#d3dde5"/>
<text x="16" y="19" text-anchor="start" fill="#18364c" font-size="10" font-family="Inter,Arial,sans-serif" font-weight="800">GPIO Input</text>
<g><rect x="71" y="36" width="184" height="99" rx="8" fill="#405766" opacity=".18"/><rect x="68" y="31" width="184" height="99" rx="8" fill="#276b55" stroke="#183b43" stroke-width="2"/><circle cx="77" cy="40" r="4.5" fill="#edf2f5" stroke="#8c9aa5" stroke-width="2"/><circle cx="243" cy="40" r="4.5" fill="#edf2f5" stroke="#8c9aa5" stroke-width="2"/><circle cx="77" cy="121" r="4.5" fill="#edf2f5" stroke="#8c9aa5" stroke-width="2"/><circle cx="243" cy="121" r="4.5" fill="#edf2f5" stroke="#8c9aa5" stroke-width="2"/><path d="M86 44 H234 M86 117 H234" stroke="#fff" stroke-opacity=".34" fill="none"/><text x="160.0" y="46" text-anchor="middle" fill="#f4fbff" font-size="7" font-family="Inter,Arial,sans-serif" font-weight="700">GPIO INPUT</text></g><rect x="79" y="59" width="48" height="25" rx="4" fill="#31a35a" stroke="#166338" stroke-width="2"/><circle cx="91" cy="71" r="7" fill="#bec7cd" stroke="#59656d" stroke-width="2"/><path d="M87 71H95" stroke="#4c555b" stroke-width="2"/><circle cx="115" cy="71" r="7" fill="#bec7cd" stroke="#59656d" stroke-width="2"/><path d="M111 71H119" stroke="#4c555b" stroke-width="2"/><rect x="143" y="55" width="5" height="3" fill="#aab4bc"/><rect x="143" y="62" width="5" height="3" fill="#aab4bc"/><rect x="143" y="69" width="5" height="3" fill="#aab4bc"/><rect x="143" y="76" width="5" height="3" fill="#aab4bc"/><rect x="195" y="55" width="5" height="3" fill="#aab4bc"/><rect x="195" y="62" width="5" height="3" fill="#aab4bc"/><rect x="195" y="69" width="5" height="3" fill="#aab4bc"/><rect x="195" y="76" width="5" height="3" fill="#aab4bc"/><rect x="148" y="51" width="47" height="36" rx="3" fill="url(#chip)" stroke="#05090d"/><text x="171.5" y="72.0" text-anchor="middle" fill="#d2d9df" font-size="6" font-family="Inter,Arial,sans-serif" font-weight="600">OPTO</text><circle cx="155" cy="58" r="2" fill="#68737b"/><circle cx="220" cy="65" r="7" fill="#ef4444"/><g transform="rotate(90 220 98)"><path d="M202 98H211M229 98H238" stroke="#8b949c" stroke-width="2"/><rect x="211" y="94" width="18" height="8" rx="3" fill="#d7bf82" stroke="#806b3f"/><path d="M216 94V102M223 94V102" stroke="#cf5a42" stroke-width="2"/></g>
<rect x="72.0" y="140" width="16" height="21" rx="3" fill="#202a31"/><circle cx="80.0" cy="150" r="5.5" fill="#e34b4b" stroke="#f5d878" stroke-width="2"/><text x="80.0" y="172" text-anchor="middle" fill="#283d4f" font-size="7" font-family="Inter,Arial,sans-serif" font-weight="700">VCC</text><rect x="152.0" y="140" width="16" height="21" rx="3" fill="#202a31"/><circle cx="160.0" cy="150" r="5.5" fill="#4b5563" stroke="#f5d878" stroke-width="2"/><text x="160.0" y="172" text-anchor="middle" fill="#283d4f" font-size="7" font-family="Inter,Arial,sans-serif" font-weight="700">GND</text><rect x="232.0" y="140" width="16" height="21" rx="3" fill="#202a31"/><circle cx="240.0" cy="150" r="5.5" fill="#e6a728" stroke="#f5d878" stroke-width="2"/><text x="240.0" y="172" text-anchor="middle" fill="#283d4f" font-size="7" font-family="Inter,Arial,sans-serif" font-weight="700">SIG</text>
</svg>