<svg xmlns="http://www.w3.org/2000/svg" viewBox="0 0 320 180" role="img" aria-label="Custom Hardware Transaction top view" data-realistic="top-view">
<metadata>2D top-view, real-part-inspired educational illustration. Pin order matches the ZEBJUS wiring model.</metadata>
<defs>
 <linearGradient id="metal" x1="0" y1="0" x2="1" y2="1"><stop stop-color="#f4f7f8"/><stop offset=".42" stop-color="#aeb8bf"/><stop offset=".72" stop-color="#e4eaed"/><stop offset="1" stop-color="#7d8991"/></linearGradient>
 <linearGradient id="chip" x1="0" y1="0" x2="0" y2="1"><stop stop-color="#39434a"/><stop offset="1" stop-color="#14191d"/></linearGradient>
 <radialGradient id="led" cx="35%" cy="28%"><stop stop-color="#fff"/><stop offset=".18" stop-color="#ffef8a"/><stop offset=".55" stop-color="#ffd234"/><stop offset="1" stop-color="#cc7b00"/></radialGradient>
 <radialGradient id="rgb" cx="35%" cy="28%"><stop stop-color="#fff"/><stop offset=".22" stop-color="#ff6580"/><stop offset=".52" stop-color="#6f82ff"/><stop offset=".8" stop-color="#40dca0"/><stop offset="1" stop-color="#2853a3"/></radialGradient>
 <filter id="shadow" x="-30%" y="-30%" width="160%" height="170%"><feDropShadow dx="0" dy="4" stdDeviation="4" flood-color="#334a5a" flood-opacity=".28"/></filter>
 <filter id="glow" x="-50%" y="-50%" width="200%" height="200%"><feGaussianBlur stdDeviation=".35"/></filter>
</defs>
<rect width="320" height="180" rx="14" fill="#f6f8fa"/>
<rect x="8" y="5" width="304" height="21" rx="7" fill="#e8eef3" stroke="#d3dde5"/>
<text x="16" y="19" text-anchor="start" fill="#18364c" font-size="10" font-family="Inter,Arial,sans-serif" font-weight="800">Custom Hardware Transaction</text>
<g><rect x="45" y="35" width="236" height="101" rx="8" fill="#405766" opacity=".18"/><rect x="42" y="30" width="236" height="101" rx="8" fill="#334b5b" stroke="#183b43" stroke-width="2"/><circle cx="51" cy="39" r="4.5" fill="#edf2f5" stroke="#8c9aa5" stroke-width="2"/><circle cx="269" cy="39" r="4.5" fill="#edf2f5" stroke="#8c9aa5" stroke-width="2"/><circle cx="51" cy="122" r="4.5" fill="#edf2f5" stroke="#8c9aa5" stroke-width="2"/><circle cx="269" cy="122" r="4.5" fill="#edf2f5" stroke="#8c9aa5" stroke-width="2"/><path d="M60 43 H260 M60 118 H260" stroke="#fff" stroke-opacity=".34" fill="none"/><text x="160.0" y="45" text-anchor="middle" fill="#f4fbff" font-size="7" font-family="Inter,Arial,sans-serif" font-weight="700">TIMING / TRANSACTION</text></g><rect x="62" y="49" width="196" height="62" rx="5" fill="#101820" stroke="#657987"/><path d="M73 90h24V67h25v23h27V57h24v33h28V72h25v18h21" fill="none" stroke="#51d6a6" stroke-width="3"/><text x="160" y="121" text-anchor="middle" fill="#fff" font-size="8" font-family="Inter,Arial,sans-serif" font-weight="700">LOGIC TIMING</text>

</svg>