<svg xmlns="http://www.w3.org/2000/svg" viewBox="0 0 320 180" role="img" aria-label="LCD1602 I²C top view" data-realistic="top-view">
<metadata>2D top-view, real-part-inspired educational illustration. Pin order matches the ZEBJUS wiring model.</metadata>
<defs>
 <linearGradient id="metal" x1="0" y1="0" x2="1" y2="1"><stop stop-color="#f4f7f8"/><stop offset=".42" stop-color="#aeb8bf"/><stop offset=".72" stop-color="#e4eaed"/><stop offset="1" stop-color="#7d8991"/></linearGradient>
 <linearGradient id="chip" x1="0" y1="0" x2="0" y2="1"><stop stop-color="#39434a"/><stop offset="1" stop-color="#14191d"/></linearGradient>
 <radialGradient id="led" cx="35%" cy="28%"><stop stop-color="#fff"/><stop offset=".18" stop-color="#ffef8a"/><stop offset=".55" stop-color="#ffd234"/><stop offset="1" stop-color="#cc7b00"/></radialGradient>
 <radialGradient id="rgb" cx="35%" cy="28%"><stop stop-color="#fff"/><stop offset=".22" stop-color="#ff6580"/><stop offset=".52" stop-color="#6f82ff"/><stop offset=".8" stop-color="#40dca0"/><stop offset="1" stop-color="#2853a3"/></radialGradient>
 <filter id="shadow" x="-30%" y="-30%" width="160%" height="170%"><feDropShadow dx="0" dy="4" stdDeviation="4" flood-color="#334a5a" flood-opacity=".28"/></filter>
 <filter id="glow" x="-50%" y="-50%" width="200%" height="200%"><feGaussianBlur stdDeviation=".35"/></filter>
</defs>
<rect width="320" height="180" rx="14" fill="#f6f8fa"/>
<rect x="8" y="5" width="304" height="21" rx="7" fill="#e8eef3" stroke="#d3dde5"/>
<text x="16" y="19" text-anchor="start" fill="#18364c" font-size="10" font-family="Inter,Arial,sans-serif" font-weight="800">LCD1602 I²C</text>
<g><rect x="34" y="34" width="258" height="103" rx="8" fill="#405766" opacity=".18"/><rect x="31" y="29" width="258" height="103" rx="8" fill="#1572a5" stroke="#183b43" stroke-width="2"/><circle cx="40" cy="38" r="4.5" fill="#edf2f5" stroke="#8c9aa5" stroke-width="2"/><circle cx="280" cy="38" r="4.5" fill="#edf2f5" stroke="#8c9aa5" stroke-width="2"/><circle cx="40" cy="123" r="4.5" fill="#edf2f5" stroke="#8c9aa5" stroke-width="2"/><circle cx="280" cy="123" r="4.5" fill="#edf2f5" stroke="#8c9aa5" stroke-width="2"/><path d="M49 42 H271 M49 119 H271" stroke="#fff" stroke-opacity=".34" fill="none"/><text x="160.0" y="44" text-anchor="middle" fill="#f4fbff" font-size="7" font-family="Inter,Arial,sans-serif" font-weight="700">LCD 1602</text></g><rect x="51" y="45" width="218" height="68" rx="5" fill="#b5d96a" stroke="#254f57" stroke-width="5"/><text x="160" y="73" text-anchor="middle" fill="#24442b" font-size="13" font-family="Inter,Arial,sans-serif" font-weight="700">ZEBJUS PYTHON</text><text x="160" y="95" text-anchor="middle" fill="#24442b" font-size="13" font-family="Inter,Arial,sans-serif" font-weight="700">16 × 2 DISPLAY</text><g fill="#e8edf0"><circle cx="45" cy="123" r="2"/><circle cx="60" cy="123" r="2"/><circle cx="75" cy="123" r="2"/><circle cx="90" cy="123" r="2"/><circle cx="105" cy="123" r="2"/><circle cx="120" cy="123" r="2"/><circle cx="135" cy="123" r="2"/><circle cx="150" cy="123" r="2"/><circle cx="165" cy="123" r="2"/><circle cx="180" cy="123" r="2"/><circle cx="195" cy="123" r="2"/><circle cx="210" cy="123" r="2"/><circle cx="225" cy="123" r="2"/><circle cx="240" cy="123" r="2"/><circle cx="255" cy="123" r="2"/><circle cx="270" cy="123" r="2"/></g>
<rect x="56.0" y="140" width="16" height="21" rx="3" fill="#202a31"/><circle cx="64.0" cy="150" r="5.5" fill="#e34b4b" stroke="#f5d878" stroke-width="2"/><text x="64.0" y="172" text-anchor="middle" fill="#283d4f" font-size="7" font-family="Inter,Arial,sans-serif" font-weight="700">VCC</text><rect x="120.0" y="140" width="16" height="21" rx="3" fill="#202a31"/><circle cx="128.0" cy="150" r="5.5" fill="#4b5563" stroke="#f5d878" stroke-width="2"/><text x="128.0" y="172" text-anchor="middle" fill="#283d4f" font-size="7" font-family="Inter,Arial,sans-serif" font-weight="700">GND</text><rect x="184.0" y="140" width="16" height="21" rx="3" fill="#202a31"/><circle cx="192.0" cy="150" r="5.5" fill="#0ea5b7" stroke="#f5d878" stroke-width="2"/><text x="192.0" y="172" text-anchor="middle" fill="#283d4f" font-size="7" font-family="Inter,Arial,sans-serif" font-weight="700">SDA</text><rect x="248.0" y="140" width="16" height="21" rx="3" fill="#202a31"/><circle cx="256.0" cy="150" r="5.5" fill="#0ea5b7" stroke="#f5d878" stroke-width="2"/><text x="256.0" y="172" text-anchor="middle" fill="#283d4f" font-size="7" font-family="Inter,Arial,sans-serif" font-weight="700">SCL</text>
</svg>