<svg xmlns="http://www.w3.org/2000/svg" viewBox="0 0 320 180" role="img" aria-label="1-Digit 7-Segment Display top view" data-realistic="top-view">
<metadata>2D top-view, real-part-inspired educational illustration. Pin order matches the ZEBJUS wiring model.</metadata>
<defs>
 <linearGradient id="metal" x1="0" y1="0" x2="1" y2="1"><stop stop-color="#f4f7f8"/><stop offset=".42" stop-color="#aeb8bf"/><stop offset=".72" stop-color="#e4eaed"/><stop offset="1" stop-color="#7d8991"/></linearGradient>
 <linearGradient id="chip" x1="0" y1="0" x2="0" y2="1"><stop stop-color="#39434a"/><stop offset="1" stop-color="#14191d"/></linearGradient>
 <radialGradient id="led" cx="35%" cy="28%"><stop stop-color="#fff"/><stop offset=".18" stop-color="#ffef8a"/><stop offset=".55" stop-color="#ffd234"/><stop offset="1" stop-color="#cc7b00"/></radialGradient>
 <radialGradient id="rgb" cx="35%" cy="28%"><stop stop-color="#fff"/><stop offset=".22" stop-color="#ff6580"/><stop offset=".52" stop-color="#6f82ff"/><stop offset=".8" stop-color="#40dca0"/><stop offset="1" stop-color="#2853a3"/></radialGradient>
 <filter id="shadow" x="-30%" y="-30%" width="160%" height="170%"><feDropShadow dx="0" dy="4" stdDeviation="4" flood-color="#334a5a" flood-opacity=".28"/></filter>
 <filter id="glow" x="-50%" y="-50%" width="200%" height="200%"><feGaussianBlur stdDeviation=".35"/></filter>
</defs>
<rect width="320" height="180" rx="14" fill="#f6f8fa"/>
<rect x="8" y="5" width="304" height="21" rx="7" fill="#e8eef3" stroke="#d3dde5"/>
<text x="16" y="19" text-anchor="start" fill="#18364c" font-size="10" font-family="Inter,Arial,sans-serif" font-weight="800">1-Digit 7-Segment Display</text>
<rect x="122" y="29" width="76" height="104" rx="7" fill="#241b1e" stroke="#65414a" stroke-width="4"/><g transform="translate(133 33)"><g fill="#ef2737"><rect x="11" y="3" width="31" height="7" rx="3"/><rect x="11" y="46" width="31" height="7" rx="3"/><rect x="11" y="89" width="31" height="7" rx="3"/><rect x="3" y="12" width="7" height="31" rx="3"/><rect x="43" y="12" width="7" height="31" rx="3"/><rect x="3" y="55" width="7" height="31" rx="3"/><rect x="43" y="55" width="7" height="31" rx="3"/><circle cx="55" cy="91" r="4"/></g></g>
<rect x="24.0" y="140" width="16" height="21" rx="3" fill="#202a31"/><circle cx="32.0" cy="150" r="5.5" fill="#e6a728" stroke="#f5d878" stroke-width="2"/><text x="32.0" y="172" text-anchor="middle" fill="#283d4f" font-size="7" font-family="Inter,Arial,sans-serif" font-weight="700">A</text><rect x="56.0" y="140" width="16" height="21" rx="3" fill="#202a31"/><circle cx="64.0" cy="150" r="5.5" fill="#e6a728" stroke="#f5d878" stroke-width="2"/><text x="64.0" y="172" text-anchor="middle" fill="#283d4f" font-size="7" font-family="Inter,Arial,sans-serif" font-weight="700">B</text><rect x="88.0" y="140" width="16" height="21" rx="3" fill="#202a31"/><circle cx="96.0" cy="150" r="5.5" fill="#e6a728" stroke="#f5d878" stroke-width="2"/><text x="96.0" y="172" text-anchor="middle" fill="#283d4f" font-size="7" font-family="Inter,Arial,sans-serif" font-weight="700">C</text><rect x="120.0" y="140" width="16" height="21" rx="3" fill="#202a31"/><circle cx="128.0" cy="150" r="5.5" fill="#e6a728" stroke="#f5d878" stroke-width="2"/><text x="128.0" y="172" text-anchor="middle" fill="#283d4f" font-size="7" font-family="Inter,Arial,sans-serif" font-weight="700">D</text><rect x="152.0" y="140" width="16" height="21" rx="3" fill="#202a31"/><circle cx="160.0" cy="150" r="5.5" fill="#e6a728" stroke="#f5d878" stroke-width="2"/><text x="160.0" y="172" text-anchor="middle" fill="#283d4f" font-size="7" font-family="Inter,Arial,sans-serif" font-weight="700">E</text><rect x="184.0" y="140" width="16" height="21" rx="3" fill="#202a31"/><circle cx="192.0" cy="150" r="5.5" fill="#e6a728" stroke="#f5d878" stroke-width="2"/><text x="192.0" y="172" text-anchor="middle" fill="#283d4f" font-size="7" font-family="Inter,Arial,sans-serif" font-weight="700">F</text><rect x="216.0" y="140" width="16" height="21" rx="3" fill="#202a31"/><circle cx="224.0" cy="150" r="5.5" fill="#e6a728" stroke="#f5d878" stroke-width="2"/><text x="224.0" y="172" text-anchor="middle" fill="#283d4f" font-size="7" font-family="Inter,Arial,sans-serif" font-weight="700">G</text><rect x="248.0" y="140" width="16" height="21" rx="3" fill="#202a31"/><circle cx="256.0" cy="150" r="5.5" fill="#e6a728" stroke="#f5d878" stroke-width="2"/><text x="256.0" y="172" text-anchor="middle" fill="#283d4f" font-size="7" font-family="Inter,Arial,sans-serif" font-weight="700">DP</text><rect x="280.0" y="140" width="16" height="21" rx="3" fill="#202a31"/><circle cx="288.0" cy="150" r="5.5" fill="#4b5563" stroke="#f5d878" stroke-width="2"/><text x="288.0" y="172" text-anchor="middle" fill="#283d4f" font-size="7" font-family="Inter,Arial,sans-serif" font-weight="700">GND</text>
</svg>